<?xml version="1.0" standalone="no"?>
<!DOCTYPE svg PUBLIC "-//W3C//DTD SVG 20010904//EN"
 "http://www.w3.org/TR/2001/REC-SVG-20010904/DTD/svg10.dtd">
<svg version="1.0" xmlns="http://www.w3.org/2000/svg"
 width="1098.000000pt" height="1280.000000pt" viewBox="0 0 1098.000000 1280.000000"
 preserveAspectRatio="xMidYMid meet">
<metadata>
Created by potrace 1.15, written by Peter Selinger 2001-2017
</metadata>
<g transform="translate(0.000000,1280.000000) scale(0.100000,-0.100000)"
fill="#000000" stroke="none">
<path d="M2655 12783 c-132 -48 -211 -161 -209 -303 1 -93 19 -134 113 -251
l69 -85 -137 -111 c-141 -114 -374 -304 -1275 -1038 -290 -236 -531 -431 -536
-433 -4 -2 -40 36 -80 83 -79 94 -124 129 -196 151 -188 57 -383 -76 -401
-274 -8 -90 15 -156 89 -249 48 -60 1462 -1798 1947 -2392 47 -57 104 -116
128 -132 202 -127 466 7 481 246 6 96 -19 157 -109 269 -69 85 -71 89 -53 106
38 36 676 552 687 555 9 3 1756 -2130 1859 -2268 16 -22 10 -31 -486 -640
-276 -339 -505 -620 -509 -623 -3 -4 -25 10 -48 30 -23 19 -46 33 -50 30 -5
-2 -262 -316 -572 -697 -310 -381 -1078 -1324 -1708 -2097 -629 -773 -1241
-1524 -1360 -1670 -119 -146 -227 -285 -242 -310 -85 -146 -71 -352 34 -492
172 -231 496 -251 698 -43 39 40 1876 2292 3569 4375 146 179 272 333 280 343
15 17 13 21 -28 56 l-44 38 25 34 c94 123 892 1094 899 1094 7 0 805 -971 899
-1094 l25 -34 -44 -38 -44 -38 40 -48 c22 -26 157 -192 300 -368 813 -1000
3323 -4081 3417 -4195 128 -154 191 -209 274 -240 168 -63 357 -22 484 105
121 121 165 280 123 440 -22 88 -48 126 -263 390 -107 132 -726 893 -1376
1690 -650 798 -1412 1734 -1694 2080 -282 347 -532 652 -555 678 l-41 49 -43
-38 c-37 -31 -45 -35 -56 -23 -7 8 -230 282 -496 609 -266 327 -489 602 -496
611 -12 13 88 140 747 950 419 514 839 1029 933 1146 94 117 176 210 183 208
11 -3 649 -519 687 -555 18 -17 16 -21 -53 -106 -90 -112 -115 -173 -109 -269
15 -239 279 -373 481 -246 24 16 81 75 128 132 485 594 1899 2332 1947 2392
74 93 97 159 89 249 -18 198 -213 331 -401 274 -72 -22 -117 -57 -196 -151
-40 -47 -76 -85 -80 -83 -5 2 -246 197 -536 433 -901 734 -1134 924 -1275
1038 l-137 111 69 85 c96 120 113 157 113 256 0 96 -25 156 -92 223 -64 64
-120 87 -217 87 -67 0 -89 -4 -135 -27 -30 -15 -71 -44 -91 -65 -20 -21 -335
-405 -700 -853 -364 -448 -820 -1007 -1012 -1243 -210 -259 -358 -448 -372
-480 -51 -108 -25 -256 60 -341 70 -69 124 -91 225 -91 125 0 177 28 278 149
42 50 81 91 87 90 10 -1 640 -508 688 -554 17 -16 14 -21 -71 -126 -49 -60
-448 -550 -887 -1089 -439 -539 -801 -980 -805 -980 -4 0 -406 490 -894 1089
-849 1042 -886 1090 -869 1106 48 46 678 553 688 554 6 1 45 -40 87 -90 101
-121 153 -149 278 -149 101 0 155 22 225 91 57 57 85 131 85 224 0 58 -5 77
-32 129 -18 34 -166 225 -329 424 -162 199 -614 754 -1004 1232 -389 479 -724
887 -744 908 -80 84 -220 118 -326 80z"/>
</g>
</svg>
