<svg class="svg-icon" style="width: 1em; height: 1em;vertical-align: middle;fill: currentColor;overflow: hidden;" viewBox="0 0 1024 1024" version="1.1" xmlns="http://www.w3.org/2000/svg"><path d="M511.997248 1024c-4.095978 0-8.191956-0.985595-11.929536-2.943984l-486.397385-255.998624A25.638262 25.638262 0 0 1 0 742.401514V25.605366A25.599862 25.599862 0 0 1 37.529398 2.949488L511.997248 252.676146 986.465098 2.949488A25.599862 25.599862 0 0 1 1023.994496 25.605366v716.796148a25.599862 25.599862 0 0 1-13.670326 22.655878l-486.397386 255.998624c-3.73758 1.958389-7.833558 2.943984-11.929536 2.943984zM51.199725 726.951997L511.997248 969.472293l460.797523-242.520296V68.011538L523.926784 304.259869a25.599862 25.599862 0 0 1-23.846272 0L51.199725 68.011538v658.940459z" fill="#333333" /><path d="M652.822091 463.491013a25.599862 25.599862 0 0 1-11.942336-48.255741l217.598831-114.559384a25.574263 25.574263 0 0 1 34.572614 10.726342c6.591965 12.518333 1.79199 27.99345-10.726342 34.572614l-217.598831 114.559385a25.446263 25.446263 0 0 1-11.903936 2.956784zM652.822091 719.489637a25.574263 25.574263 0 0 1-11.942336-48.242941l217.598831-114.559384a25.587062 25.587062 0 1 1 23.846272 45.298956l-217.598831 114.559385c-3.80158 1.996789-7.897558 2.943984-11.903936 2.943984zM204.798899 701.953731a25.599862 25.599862 0 0 1-25.599862-25.599862v-409.597799a25.599862 25.599862 0 0 1 51.199725 0v409.597799a25.599862 25.599862 0 0 1-25.599863 25.599862zM358.398074 796.289224a25.599862 25.599862 0 0 1-25.599863-25.599862v-409.597799a25.599862 25.599862 0 0 1 51.199725 0v409.597799a25.599862 25.599862 0 0 1-25.599862 25.599862z" fill="#666666" /></svg>