<?xml version="1.0" standalone="no"?>
<!DOCTYPE svg PUBLIC "-//W3C//DTD SVG 20010904//EN"
 "http://www.w3.org/TR/2001/REC-SVG-20010904/DTD/svg10.dtd">
<svg version="1.0" xmlns="http://www.w3.org/2000/svg"
 width="1280.000000pt" height="1280.000000pt" viewBox="0 0 1280.000000 1280.000000"
 preserveAspectRatio="xMidYMid meet">
<metadata>
Created by potrace 1.15, written by Peter Selinger 2001-2017
</metadata>
<g transform="translate(0.000000,1280.000000) scale(0.100000,-0.100000)"
fill="#000000" stroke="none">
<path fill="#666666" d="M5693 12791 c-149 -38 -234 -157 -190 -264 20 -46 86 -101 140 -116
45 -13 47 -15 47 -51 0 -42 -13 -50 -80 -50 -32 0 -46 -11 -153 -122 -65 -67
-159 -170 -208 -228 l-90 -107 -249 125 -249 126 -41 -13 c-23 -7 -48 -15 -55
-17 -8 -4 -18 8 -25 31 -11 33 -10 38 9 52 115 80 141 210 59 290 -64 62 -159
78 -267 44 -170 -53 -256 -204 -179 -317 28 -42 88 -73 156 -81 45 -5 52 -9
61 -36 6 -16 11 -33 11 -37 0 -4 -27 -17 -59 -29 -59 -21 -60 -22 -126 -132
-36 -61 -103 -179 -147 -262 -45 -84 -83 -153 -84 -155 -1 -2 -56 11 -121 28
-137 37 -284 73 -364 89 -52 11 -58 10 -100 -14 -24 -13 -47 -25 -51 -25 -4 0
-15 14 -24 31 -15 29 -14 32 4 53 84 90 82 234 -2 290 -95 62 -251 32 -351
-69 -56 -56 -76 -96 -82 -164 -4 -47 -1 -61 19 -91 46 -68 125 -99 216 -84 38
6 41 4 56 -24 9 -17 16 -33 16 -35 0 -2 -24 -20 -53 -39 l-53 -35 -52 -164
c-28 -90 -66 -221 -84 -290 l-32 -125 -279 4 -278 5 -40 -39 -39 -38 -27 26
-26 27 23 52 c17 41 21 66 18 111 -5 65 -24 99 -79 136 -29 21 -43 23 -99 19
-111 -7 -207 -74 -259 -179 -52 -103 -38 -210 32 -260 42 -30 133 -36 193 -13
45 17 46 17 70 -6 13 -12 24 -26 24 -31 0 -5 -18 -28 -40 -52 -49 -53 -54 -80
-72 -423 l-12 -231 -75 -11 c-76 -12 -367 -73 -433 -91 -27 -8 -44 -22 -65
-55 -15 -25 -30 -45 -33 -45 -3 0 -17 10 -32 23 -26 21 -27 24 -16 72 19 88
-18 187 -82 220 -42 22 -122 19 -175 -6 -86 -40 -167 -157 -181 -262 -13 -90
29 -173 102 -203 53 -22 97 -17 169 21 l67 35 29 -21 30 -21 -22 -36 c-12 -21
-26 -41 -31 -46 -4 -6 -8 -26 -8 -45 0 -52 36 -295 66 -449 14 -74 24 -135 22
-137 -2 -1 -68 -31 -148 -65 -80 -34 -192 -86 -250 -115 -104 -52 -105 -53
-124 -104 -16 -45 -21 -51 -40 -45 -43 13 -47 20 -50 76 -9 200 -196 266 -330
117 -53 -58 -78 -121 -84 -205 -5 -81 8 -130 45 -175 71 -84 193 -77 279 18
29 31 32 33 65 22 19 -7 35 -13 36 -14 2 -1 -7 -29 -18 -63 l-21 -62 58 -153
c31 -83 81 -206 111 -272 30 -66 56 -125 59 -130 2 -6 -42 -44 -98 -85 -57
-41 -158 -119 -225 -173 -110 -89 -123 -102 -123 -130 0 -64 -8 -74 -47 -68
-33 6 -37 10 -48 54 -25 97 -99 167 -176 167 -80 0 -172 -83 -201 -183 -19
-66 -15 -175 9 -227 42 -94 123 -142 204 -120 47 13 107 64 135 115 11 21 24
33 32 30 8 -3 25 -5 39 -5 26 0 26 0 19 -66 l-7 -65 85 -127 c46 -70 125 -182
175 -250 l91 -122 -129 -150 c-72 -83 -151 -179 -177 -215 -45 -61 -48 -68
-45 -120 2 -49 0 -55 -17 -55 -11 0 -27 -3 -35 -6 -10 -3 -21 9 -36 40 -28 56
-88 111 -138 126 -80 24 -163 -25 -207 -120 -15 -34 -20 -66 -20 -130 0 -73 3
-92 28 -140 34 -67 60 -96 108 -121 70 -36 138 -19 199 47 19 22 41 61 48 87
13 45 15 47 51 47 42 0 50 -13 50 -80 0 -32 11 -46 122 -153 67 -65 170 -159
228 -208 l107 -90 -125 -249 -126 -249 13 -41 c7 -23 15 -48 17 -55 4 -8 -8
-17 -31 -25 -32 -11 -37 -10 -55 12 -11 12 -19 26 -20 30 0 13 -91 66 -125 72
-107 20 -205 -79 -205 -209 0 -62 35 -163 74 -216 45 -61 128 -104 187 -96 85
11 143 81 156 185 5 45 9 52 36 61 16 6 33 11 37 11 4 0 17 -27 29 -59 21 -59
22 -60 132 -126 61 -36 179 -103 262 -147 84 -45 153 -83 155 -84 2 -1 -11
-56 -28 -121 -37 -137 -73 -284 -89 -364 -11 -52 -10 -58 14 -100 13 -24 25
-47 25 -51 0 -4 -14 -15 -30 -23 -30 -15 -32 -15 -63 11 -91 77 -227 72 -281
-10 -62 -95 -32 -251 69 -351 56 -56 96 -76 164 -82 47 -4 61 -1 91 19 68 46
99 125 84 216 -6 38 -4 41 24 56 17 9 33 16 35 16 2 0 20 -24 39 -53 l35 -53
164 -52 c90 -28 221 -66 290 -84 l125 -32 -4 -279 -5 -278 39 -40 38 -39 -26
-27 -27 -26 -52 23 c-41 17 -66 21 -111 18 -65 -5 -99 -24 -136 -79 -21 -29
-23 -43 -19 -99 7 -111 74 -207 179 -259 103 -52 210 -38 260 32 30 42 36 133
13 193 -17 45 -17 46 6 70 12 13 27 24 33 24 6 0 29 -18 51 -40 37 -36 48 -41
115 -50 41 -5 179 -15 307 -22 l231 -12 11 -75 c12 -76 73 -367 91 -433 8 -27
22 -44 55 -65 25 -15 45 -30 45 -33 0 -3 -10 -17 -23 -32 -21 -26 -24 -27 -72
-16 -88 19 -187 -18 -220 -82 -22 -42 -19 -122 6 -175 40 -86 157 -167 262
-181 90 -13 173 29 203 102 22 53 17 97 -21 169 l-35 67 21 29 21 30 36 -22
c21 -12 41 -26 47 -31 5 -4 25 -8 45 -8 51 0 294 36 448 66 74 14 135 24 137
22 1 -2 32 -71 68 -154 36 -83 88 -196 115 -250 49 -98 51 -100 101 -118 28
-10 51 -19 51 -21 0 -1 -5 -16 -11 -32 -9 -28 -14 -31 -70 -36 -75 -7 -146
-42 -176 -87 -29 -42 -31 -116 -4 -169 25 -49 91 -108 150 -134 57 -25 174
-34 225 -17 143 47 168 207 49 316 -31 29 -33 32 -22 65 7 19 13 35 14 36 1 2
29 -7 63 -18 l62 -21 151 57 c82 31 205 81 272 111 67 31 127 56 134 57 6 1
46 -45 88 -103 132 -179 259 -331 280 -335 11 -2 36 -6 56 -10 35 -5 36 -6 30
-42 -6 -33 -10 -37 -54 -48 -97 -25 -167 -99 -167 -176 0 -80 83 -172 183
-201 66 -19 175 -15 227 9 94 42 142 123 120 204 -13 47 -64 107 -115 135 -21
11 -33 24 -30 32 3 8 5 25 5 39 0 26 0 26 66 19 l65 -7 127 85 c70 46 182 125
250 175 l122 91 150 -129 c83 -72 179 -151 215 -177 61 -45 68 -48 120 -45 49
2 55 0 55 -17 0 -11 3 -27 6 -36 4 -10 -5 -19 -28 -29 -88 -37 -156 -135 -143
-206 11 -60 48 -106 112 -138 50 -24 70 -28 143 -28 73 0 93 4 140 29 67 34
96 60 121 108 36 70 19 138 -47 199 -22 19 -61 41 -87 48 -45 13 -47 15 -47
51 0 42 13 50 80 50 32 0 46 11 153 122 65 67 159 170 208 228 l90 107 249
-125 249 -126 41 13 c23 7 48 15 55 17 8 4 18 -8 25 -31 11 -33 10 -38 -9 -52
-115 -80 -141 -210 -59 -290 64 -62 159 -78 267 -44 170 53 256 204 179 317
-28 42 -88 73 -156 81 -45 5 -52 9 -61 36 -6 16 -11 33 -11 37 0 4 27 17 59
29 59 21 60 22 126 132 36 61 103 179 147 262 45 84 83 153 84 155 1 2 56 -11
121 -28 137 -37 284 -73 364 -89 52 -11 58 -10 100 14 24 13 47 25 51 25 4 0
15 -14 24 -31 15 -29 14 -32 -4 -53 -84 -90 -82 -234 2 -290 95 -62 251 -32
351 69 56 56 76 96 82 164 4 47 1 61 -19 91 -46 68 -125 99 -216 84 -38 -6
-41 -4 -56 24 -9 17 -16 33 -16 35 0 2 24 20 53 39 l53 35 52 164 c28 90 66
221 84 290 l32 125 279 -4 278 -5 40 39 39 38 27 -26 26 -27 -23 -52 c-17 -41
-21 -66 -18 -111 5 -65 24 -99 79 -136 29 -21 43 -23 99 -19 111 7 207 74 259
179 52 103 38 210 -32 260 -42 30 -133 36 -193 13 -45 -17 -46 -17 -70 6 -13
12 -24 26 -24 31 0 5 18 28 40 52 49 53 54 80 72 423 l12 231 75 11 c76 12
367 73 433 91 27 8 44 22 65 55 15 25 30 45 33 45 3 0 17 -10 32 -23 26 -21
27 -24 16 -72 -19 -88 18 -187 82 -220 42 -22 122 -19 175 6 86 40 167 157
181 262 13 90 -29 173 -102 203 -53 22 -97 17 -169 -21 l-67 -35 -29 21 -30
21 22 36 c12 21 26 41 31 46 4 6 8 26 8 45 0 52 -36 295 -66 449 -14 74 -24
135 -22 137 2 1 68 31 148 65 80 34 192 86 250 115 104 52 105 53 124 104 16
45 21 51 40 45 43 -13 47 -20 50 -76 9 -200 196 -266 330 -117 53 58 78 121
84 205 5 81 -8 130 -45 175 -71 84 -193 77 -279 -18 -29 -31 -32 -33 -65 -22
-19 7 -35 13 -36 14 -2 1 7 29 18 63 l21 62 -57 151 c-31 82 -81 205 -111 272
-31 67 -57 127 -60 132 -2 6 42 44 98 85 57 41 158 119 226 173 109 89 122
102 122 130 0 64 8 74 47 68 33 -6 37 -10 48 -54 25 -97 99 -167 176 -167 80
0 172 83 201 183 19 66 15 175 -9 227 -42 94 -123 142 -204 120 -47 -13 -107
-64 -135 -115 -11 -21 -24 -33 -32 -30 -8 3 -25 5 -39 5 -26 0 -26 0 -19 66
l7 65 -85 127 c-46 70 -125 182 -175 250 l-91 122 129 150 c72 83 151 179 177
215 45 61 48 68 45 120 -2 49 0 55 17 55 11 0 27 3 35 6 10 3 21 -9 36 -40 28
-56 88 -111 138 -126 80 -24 163 25 207 120 15 34 20 66 20 130 0 73 -3 92
-28 140 -34 67 -60 96 -108 121 -70 36 -138 19 -199 -47 -19 -22 -41 -61 -48
-87 -13 -45 -15 -47 -51 -47 -42 0 -50 13 -50 80 0 32 -11 46 -122 153 -67 65
-170 159 -228 208 l-107 90 125 249 126 249 -13 41 c-7 23 -15 48 -17 55 -4 8
8 18 31 25 33 11 38 10 52 -9 80 -115 210 -141 290 -59 63 65 78 159 43 269
-54 171 -202 254 -316 177 -42 -28 -73 -88 -81 -156 -5 -45 -9 -52 -36 -61
-16 -6 -33 -11 -37 -11 -4 0 -17 27 -29 59 -21 59 -22 60 -132 126 -61 36
-179 103 -262 147 -84 45 -153 83 -155 84 -2 1 11 56 28 121 37 137 73 284 89
364 11 52 10 58 -14 100 -13 24 -25 47 -25 51 0 4 14 15 31 24 29 15 32 14 53
-4 64 -60 163 -79 232 -46 124 59 119 270 -11 399 -56 56 -96 76 -164 82 -47
4 -61 1 -91 -19 -68 -46 -99 -125 -84 -216 6 -38 4 -41 -24 -56 -17 -9 -33
-16 -35 -16 -2 0 -20 24 -39 53 l-35 53 -164 52 c-90 28 -221 66 -290 84
l-125 32 4 279 5 278 -39 40 -38 39 26 27 27 26 52 -23 c41 -17 66 -21 111
-18 65 5 99 24 136 79 21 29 23 43 19 99 -7 111 -74 207 -179 259 -103 52
-210 38 -260 -32 -30 -42 -36 -133 -13 -193 17 -45 17 -46 -6 -70 -12 -13 -26
-24 -31 -24 -5 0 -28 18 -52 40 -53 49 -80 54 -423 72 l-231 12 -11 75 c-12
76 -73 367 -91 433 -8 27 -22 44 -55 65 -25 15 -45 30 -45 33 0 3 10 17 23 32
21 26 24 27 72 16 88 -19 187 18 220 82 22 42 19 122 -6 175 -40 86 -157 167
-262 181 -90 13 -173 -29 -203 -102 -22 -53 -17 -97 21 -169 l35 -67 -21 -29
-21 -30 -36 22 c-21 12 -41 26 -47 31 -5 4 -25 8 -45 8 -51 0 -294 -36 -448
-66 -74 -14 -135 -24 -137 -22 -1 2 -31 68 -65 148 -34 80 -86 192 -115 250
-52 104 -53 105 -104 124 -28 10 -51 19 -51 21 0 1 5 16 11 32 9 28 14 31 70
36 75 7 146 42 176 87 29 42 31 116 4 169 -25 49 -91 108 -150 134 -57 25
-174 34 -225 17 -143 -47 -168 -207 -49 -316 31 -29 33 -32 22 -65 -7 -19 -13
-35 -14 -36 -1 -2 -29 7 -63 18 l-62 21 -151 -57 c-82 -31 -205 -81 -272 -111
-67 -31 -127 -56 -134 -57 -6 -1 -46 45 -88 103 -132 179 -259 331 -280 335
-11 2 -36 6 -56 10 -35 5 -36 6 -30 42 6 33 10 37 54 48 97 25 167 99 167 176
0 80 -83 172 -183 201 -66 19 -175 15 -227 -9 -94 -42 -142 -123 -120 -204 13
-47 64 -107 115 -135 21 -11 33 -24 30 -32 -3 -8 -5 -25 -5 -39 0 -26 0 -26
-66 -19 l-65 7 -127 -85 c-70 -46 -182 -125 -250 -175 l-122 -91 -150 129
c-83 72 -179 151 -215 177 -61 45 -68 48 -120 45 -49 -2 -55 0 -55 17 0 11 -3
27 -6 36 -4 10 5 19 28 29 88 37 156 135 143 206 -17 95 -105 158 -231 166
-38 2 -83 1 -101 -4z m390 -703 c51 -39 143 -114 205 -165 l112 -94 133 94
c154 110 333 227 345 227 5 0 8 -10 6 -22 -2 -13 -11 -106 -19 -208 -13 -152
-26 -230 -74 -445 -33 -143 -69 -314 -82 -380 l-22 -121 -266 2 -266 2 -23
133 c-12 74 -45 249 -72 389 -37 195 -51 296 -60 430 -6 96 -13 187 -15 203
-2 15 -2 27 1 27 3 0 47 -32 97 -72z m-465 -136 c22 -142 25 -198 31 -592 3
-239 5 -436 4 -438 0 -2 -55 -14 -120 -27 -65 -13 -178 -38 -251 -55 -73 -18
-135 -31 -138 -28 -2 3 -36 79 -73 169 -38 90 -106 247 -151 349 -86 192 -218
590 -196 590 6 0 113 -50 236 -112 124 -62 228 -112 232 -112 3 -1 20 17 38
39 57 72 353 386 358 380 3 -3 17 -76 30 -163z m1769 26 c78 -96 210 -269 219
-286 0 -1 34 13 75 31 86 40 401 162 442 172 15 4 27 4 27 0 0 -4 -27 -92 -61
-197 -43 -134 -86 -241 -147 -366 -47 -97 -122 -258 -167 -357 -56 -123 -87
-179 -96 -177 -8 2 -84 21 -169 42 -85 21 -195 46 -244 56 l-88 17 5 51 c4 28
11 197 17 376 9 272 16 361 42 547 18 122 35 220 39 217 4 -2 52 -59 106 -126z
m-2973 -371 c53 -140 82 -240 127 -432 32 -137 74 -312 94 -389 20 -76 33
-142 28 -146 -4 -4 -66 -33 -138 -65 -71 -31 -172 -79 -223 -106 -51 -27 -96
-49 -101 -49 -4 0 -39 44 -77 98 -38 53 -141 194 -229 312 -107 143 -196 275
-264 393 -56 98 -101 181 -98 183 7 7 398 -81 498 -111 10 -4 21 7 33 32 49
104 262 463 274 463 4 0 38 -82 76 -183z m4215 -40 c43 -89 88 -188 101 -220
21 -49 27 -57 45 -53 62 18 546 88 553 81 3 -2 -42 -83 -99 -180 -74 -125
-143 -224 -238 -343 -73 -92 -181 -230 -239 -307 -58 -77 -107 -142 -109 -145
-2 -2 -81 35 -176 82 -95 48 -200 99 -234 114 -35 14 -63 32 -63 39 0 7 18 72
39 146 21 74 67 240 100 369 44 168 84 290 138 427 71 179 78 191 91 172 8
-11 49 -93 91 -182z m-2694 -313 c35 -122 67 -238 70 -257 l7 -34 -69 -7 c-37
-4 -85 -9 -106 -13 l-37 -6 6 104 c3 57 12 189 20 293 8 103 14 198 15 210 1
26 12 -7 94 -290z m1089 51 c9 -132 16 -270 16 -306 l0 -65 -102 13 c-55 7
-102 14 -104 16 -2 2 12 57 30 123 43 152 139 465 142 461 1 -1 10 -110 18
-242z m-2204 -190 c56 -99 122 -219 146 -266 l43 -87 -99 -34 c-86 -30 -100
-32 -104 -19 -12 39 -96 559 -96 590 0 9 10 -8 110 -184z m3280 -71 c-61 -358
-62 -364 -70 -364 -3 0 -44 14 -91 30 -46 17 -89 33 -96 35 -8 2 4 33 33 87
68 127 258 457 262 454 1 -2 -16 -111 -38 -242z m-4797 -8 c85 -128 148 -243
288 -526 99 -200 178 -363 177 -364 -19 -10 -262 -197 -321 -248 -44 -38 -83
-68 -88 -68 -5 0 -53 40 -107 88 -53 48 -187 165 -297 259 -130 110 -246 220
-330 312 -71 79 -132 147 -134 153 -2 6 86 9 263 6 l265 -3 10 45 c9 41 97
333 138 458 9 28 19 52 22 52 3 0 55 -74 114 -164z m6411 -56 c19 -85 43 -196
53 -246 l17 -91 145 -7 c161 -7 420 -31 428 -40 3 -3 -55 -69 -128 -147 -91
-97 -190 -187 -309 -282 -96 -77 -237 -192 -313 -255 l-138 -115 -22 20 c-107
95 -342 283 -385 308 -1 1 29 58 66 126 38 68 122 225 187 349 126 239 342
573 356 548 4 -7 23 -83 43 -168z m-5898 -340 c207 -230 258 -290 250 -297 -3
-3 -43 -30 -88 -59 l-83 -53 -28 62 c-31 66 -207 506 -207 515 0 3 2 3 3 1 2
-2 71 -78 153 -169z m5288 -56 c-73 -180 -152 -365 -159 -372 -5 -5 -174 102
-175 111 0 14 400 458 408 452 1 -1 -32 -87 -74 -191z m-2469 162 c589 -19
1290 -216 1839 -517 408 -224 714 -456 1041 -790 335 -342 581 -690 790 -1114
329 -668 470 -1343 443 -2115 -33 -953 -408 -1905 -1042 -2645 -92 -107 -329
-347 -441 -444 -664 -579 -1471 -938 -2354 -1047 -178 -21 -460 -31 -701 -22
-887 30 -1799 368 -2505 926 -281 223 -580 530 -791 812 -526 705 -833 1565
-863 2419 -32 923 188 1752 667 2516 293 467 706 903 1162 1227 683 484 1506
766 2325 797 99 4 200 6 225 4 25 -1 117 -5 205 -7z m-4283 -518 c96 -90 186
-189 281 -308 77 -96 192 -237 255 -313 l114 -137 -79 -93 c-59 -68 -231 -287
-248 -315 -1 -1 -58 28 -126 66 -68 38 -225 122 -349 187 -238 125 -573 342
-548 356 17 9 294 73 414 95 l91 18 7 142 c9 203 32 434 43 434 2 0 68 -60
145 -132z m8296 -182 l-3 -265 70 -17 c39 -9 156 -43 260 -76 105 -33 198 -63
208 -65 9 -3 17 -8 17 -12 0 -3 -74 -55 -164 -114 -128 -85 -243 -148 -526
-288 -200 -99 -363 -178 -364 -177 -10 19 -197 262 -248 321 -38 44 -68 83
-68 88 0 5 42 55 93 112 50 56 165 188 255 294 103 122 216 241 310 327 81 74
151 136 155 136 5 0 7 -119 5 -264z m-7481 -251 c45 -33 83 -62 83 -65 0 -3
-33 -38 -74 -79 l-74 -73 -54 73 c-58 79 -298 428 -298 434 0 4 279 -190 417
-290z m6804 88 c-158 -227 -235 -332 -241 -333 -3 0 -39 33 -79 74 l-73 74 73
53 c107 79 423 297 431 298 4 1 -46 -74 -111 -166z m-8354 -662 c122 -72 224
-144 373 -263 113 -89 251 -197 307 -238 56 -41 102 -79 103 -84 0 -5 -29 -63
-63 -130 -35 -67 -85 -169 -112 -228 -26 -60 -53 -108 -60 -108 -7 0 -59 14
-116 31 -57 17 -223 62 -369 100 -197 52 -314 89 -455 145 -104 42 -192 78
-194 80 -4 4 339 171 422 205 52 21 57 26 52 47 -11 43 -34 186 -55 337 -11
83 -23 165 -26 184 -7 43 -15 46 193 -78z m9788 17 c-18 -88 -88 -389 -101
-433 -8 -27 -11 -51 -6 -53 44 -14 484 -274 489 -288 1 -5 -80 -40 -180 -78
-140 -53 -240 -82 -432 -127 -137 -32 -312 -74 -389 -94 -76 -20 -142 -33
-146 -28 -4 4 -31 62 -60 128 -29 66 -77 166 -106 222 -30 56 -54 105 -54 110
0 5 37 36 83 68 45 32 185 135 312 229 147 110 291 207 405 273 96 56 179 102
183 103 5 0 6 -15 2 -32z m-9188 -134 c179 -73 365 -152 371 -159 6 -5 -103
-174 -112 -175 -10 0 -107 86 -311 274 -77 71 -142 131 -144 133 -16 12 32 -6
196 -73z m8537 -16 c-32 -29 -91 -83 -131 -120 -140 -128 -274 -241 -280 -234
-3 3 -30 43 -59 88 l-53 83 42 20 c58 26 520 214 530 214 5 1 -18 -23 -49 -51z
m-9652 -999 c130 -42 241 -86 356 -142 92 -44 253 -120 357 -168 129 -58 189
-91 187 -100 -2 -8 -21 -84 -42 -169 -21 -85 -46 -195 -56 -243 l-17 -88 -76
6 c-42 4 -233 13 -426 21 -286 11 -382 19 -524 42 l-175 28 105 85 c107 89
282 224 306 238 11 6 7 23 -20 82 -40 86 -162 401 -172 442 -4 15 -4 27 0 27
4 0 92 -27 197 -61z m568 26 c128 -20 444 -77 449 -81 2 -2 -9 -38 -25 -81
-15 -43 -31 -88 -35 -100 -8 -21 -11 -21 -111 34 -103 55 -429 242 -438 250
-3 3 11 2 30 -1 19 -3 78 -13 130 -21z m9629 -29 c-9 -9 -390 -221 -460 -257
l-77 -38 -34 99 c-23 67 -31 101 -23 104 6 2 94 18 196 35 346 57 408 66 398
57z m510 -244 c-62 -125 -113 -230 -113 -234 -1 -3 17 -20 39 -38 22 -17 118
-104 214 -193 144 -134 170 -162 155 -169 -11 -4 -104 -18 -209 -32 -172 -24
-226 -26 -583 -28 -386 -3 -393 -3 -397 17 -2 11 -12 58 -20 105 -9 47 -31
146 -50 220 -18 74 -35 141 -37 149 -2 9 20 24 62 42 36 16 196 85 355 155
211 92 344 143 490 188 110 34 202 58 203 53 2 -4 -47 -110 -109 -235z m-9956
-904 c-7 -55 -14 -102 -16 -104 -4 -5 -206 52 -417 117 -96 30 -165 55 -153
57 51 7 416 30 504 31 l95 1 -13 -102z m9481 36 c103 -8 198 -14 210 -15 12
-1 3 -7 -24 -15 -91 -30 -489 -143 -523 -149 l-34 -7 -7 69 c-4 37 -9 85 -13
106 l-6 37 104 -6 c57 -3 189 -12 293 -20z m-10454 -109 c154 -13 229 -26 445
-74 143 -33 314 -69 380 -82 l121 -23 -2 -266 -2 -265 -133 -23 c-74 -12 -240
-43 -369 -69 -182 -36 -284 -50 -455 -63 -121 -9 -222 -15 -224 -14 -4 4 102
139 237 302 l93 112 -94 133 c-110 154 -227 333 -227 345 0 5 10 8 23 6 12 -2
105 -11 207 -19z m11280 -51 c0 -8 -112 -150 -238 -302 l-93 -112 94 -133
c110 -154 227 -333 227 -345 0 -5 -10 -8 -22 -6 -13 2 -106 11 -208 19 -154
13 -229 26 -445 74 -143 33 -314 69 -380 82 l-121 23 2 266 2 265 133 23 c74
12 240 43 369 69 177 35 288 50 450 63 118 10 218 18 223 19 4 0 7 -2 7 -5z
m-10316 -871 c4 -38 9 -85 13 -106 l6 -38 -94 6 c-173 11 -524 37 -526 39 -5
5 554 164 578 165 13 1 18 -13 23 -66z m9242 -7 c65 -18 198 -58 294 -87 l175
-54 -75 -7 c-133 -11 -416 -28 -482 -28 l-64 0 12 98 c7 53 13 100 14 105 0 9
-9 11 126 -27z m-9202 -298 c3 -13 13 -61 21 -108 9 -47 31 -146 50 -220 18
-74 35 -141 37 -149 2 -9 -20 -24 -62 -42 -36 -16 -195 -85 -355 -155 -213
-93 -344 -143 -492 -189 -119 -36 -203 -57 -203 -51 0 6 50 113 112 236 62
124 112 228 112 232 1 3 -17 20 -39 38 -72 57 -386 353 -380 358 3 3 76 17
163 30 141 23 199 26 567 31 226 4 422 8 437 9 21 2 29 -3 32 -20z m9531 -44
c286 -11 382 -19 524 -42 l175 -28 -105 -85 c-107 -89 -282 -224 -306 -238
-11 -6 -7 -23 20 -82 40 -86 162 -401 172 -441 4 -16 4 -28 0 -28 -4 0 -92 27
-197 61 -130 42 -241 86 -356 142 -92 44 -252 120 -357 168 -129 58 -189 91
-187 100 2 8 21 84 42 169 21 85 46 195 56 243 l17 88 76 -6 c42 -4 234 -13
426 -21z m-9342 -687 c29 -83 32 -97 18 -101 -51 -15 -581 -99 -587 -93 -2 1
72 45 164 97 168 96 365 200 369 196 1 -1 17 -45 36 -99z m9029 -135 c103 -58
185 -108 184 -110 -2 -1 -111 16 -242 38 -358 61 -364 62 -364 70 0 3 14 44
30 91 17 46 33 89 35 96 4 13 76 -23 357 -185z m-8877 -247 c35 -77 84 -179
109 -226 25 -48 46 -91 46 -96 0 -6 -44 -41 -97 -79 -54 -38 -195 -141 -313
-229 -141 -106 -276 -196 -393 -264 -98 -56 -181 -101 -183 -98 -6 5 53 274
91 422 13 49 23 90 22 91 -97 45 -489 276 -494 290 -1 5 80 40 180 78 144 54
243 83 472 137 160 38 331 79 380 93 50 13 96 24 104 23 7 -1 42 -65 76 -142z
m8556 66 c74 -21 240 -67 369 -100 168 -44 289 -83 425 -137 105 -42 192 -78
194 -80 4 -4 -339 -171 -422 -205 -49 -20 -57 -26 -53 -44 18 -66 88 -546 81
-553 -2 -3 -83 42 -180 99 -133 79 -227 145 -389 274 -118 94 -257 202 -310
240 -52 39 -96 74 -96 79 0 5 29 63 64 130 35 66 85 169 111 229 26 59 53 107
60 107 6 0 72 -18 146 -39z m-8266 -611 l54 -85 -62 -28 c-81 -37 -509 -208
-512 -205 -6 7 448 408 458 405 4 -1 32 -40 62 -87z m7899 -22 c115 -101 364
-332 361 -336 -5 -6 -550 220 -563 233 -5 5 102 174 111 175 4 0 45 -33 91
-72z m-7674 -305 c47 -64 118 -154 158 -200 39 -47 72 -89 72 -94 0 -5 -40
-53 -88 -107 -48 -53 -165 -187 -259 -297 -110 -130 -220 -246 -312 -330 -79
-71 -147 -132 -153 -134 -6 -2 -9 86 -6 263 l3 265 -45 10 c-41 9 -333 97
-457 138 -29 9 -53 19 -53 22 0 3 68 51 150 106 110 73 248 150 518 286 202
102 372 186 377 186 6 1 48 -51 95 -114z m7511 19 c68 -38 225 -122 349 -187
238 -125 573 -342 548 -356 -17 -9 -294 -73 -414 -95 l-91 -18 -7 -145 c-7
-161 -31 -420 -40 -428 -3 -3 -69 55 -147 128 -97 91 -187 190 -282 309 -77
96 -192 237 -255 313 l-114 137 48 56 c68 79 185 224 236 294 24 33 44 60 44
60 1 0 57 -31 125 -68z m-7102 -496 l73 -74 -73 -54 c-79 -58 -428 -298 -434
-298 -9 0 347 499 355 500 3 0 38 -33 79 -74z m6604 -28 c57 -79 297 -427 297
-433 0 -6 -463 321 -499 352 -4 3 139 153 146 153 1 0 26 -33 56 -72z m-6343
-214 c55 -49 297 -240 328 -259 1 -1 -28 -58 -66 -126 -38 -68 -122 -225 -187
-349 -125 -238 -342 -573 -356 -548 -9 17 -73 294 -95 414 l-18 91 -145 7
c-161 7 -420 31 -428 40 -3 3 55 69 128 147 101 107 194 190 379 339 135 109
274 223 310 254 36 30 67 55 70 55 3 0 39 -29 80 -65z m6138 -52 c53 -48 187
-165 297 -259 130 -110 246 -220 330 -312 72 -79 132 -147 134 -152 2 -7 -88
-9 -263 -7 l-265 3 -10 -45 c-9 -41 -97 -333 -138 -457 -9 -29 -19 -53 -22
-53 -3 0 -55 74 -114 164 -85 128 -148 243 -288 526 -99 200 -178 363 -177
364 19 10 262 197 321 249 44 37 83 67 88 67 5 0 53 -40 107 -88z m-5600 -347
c45 -27 82 -54 82 -58 0 -14 -400 -458 -408 -452 -8 7 229 567 238 563 4 -2
44 -25 88 -53z m5103 -314 c49 -123 88 -225 87 -226 -3 -3 -255 275 -348 383
-34 40 -60 76 -56 79 3 3 43 30 88 59 l83 53 28 -62 c16 -34 69 -163 118 -286z
m-4757 116 c67 -35 169 -85 229 -112 59 -26 107 -53 107 -59 0 -6 -16 -68 -36
-136 -20 -69 -66 -240 -104 -380 -48 -182 -88 -307 -140 -435 -39 -99 -73
-182 -76 -184 -4 -4 -171 339 -205 422 -20 49 -26 57 -44 53 -67 -19 -546 -88
-554 -80 -2 2 43 82 100 179 79 133 145 227 274 389 94 118 202 257 240 310
39 52 74 96 79 96 5 0 63 -29 130 -63z m4382 -54 c38 -54 141 -195 229 -313
106 -141 196 -276 264 -393 56 -98 101 -181 98 -183 -5 -6 -276 53 -417 90
-52 13 -95 24 -96 23 -45 -97 -276 -489 -290 -494 -5 -1 -40 80 -78 180 -53
140 -82 240 -127 432 -32 138 -74 312 -94 389 -20 76 -33 142 -28 146 4 4 64
32 133 63 69 30 168 78 220 106 52 28 100 51 106 51 6 0 42 -44 80 -97z
m-3815 -193 c46 -17 89 -33 96 -35 8 -2 -4 -33 -33 -87 -68 -127 -258 -457
-262 -454 -1 2 16 111 38 242 61 358 62 364 70 364 3 0 44 -14 91 -30z m3157
-125 c27 -152 73 -458 69 -461 -4 -4 -217 375 -261 463 l-35 71 97 34 c61 21
99 30 103 23 4 -5 16 -64 27 -130z m-2648 -25 c69 -16 153 -34 188 -41 l63
-12 -6 -76 c-4 -42 -13 -233 -21 -426 -11 -286 -19 -382 -42 -524 l-28 -175
-85 105 c-88 106 -224 282 -237 306 -6 9 -38 0 -132 -41 -140 -59 -393 -156
-409 -156 -6 0 -11 3 -11 6 0 3 27 91 61 195 44 139 86 243 156 386 52 108
124 262 160 342 36 80 69 153 74 162 8 15 14 15 76 -3 37 -10 124 -32 193 -48z
m2359 -121 c38 -90 106 -247 151 -349 86 -192 218 -590 196 -590 -6 0 -113 50
-236 112 -124 62 -228 112 -232 112 -3 1 -20 -17 -38 -39 -17 -22 -104 -118
-193 -214 -134 -144 -162 -170 -169 -155 -4 11 -18 105 -32 209 -24 172 -26
226 -28 583 -3 386 -3 393 17 397 11 2 58 12 105 20 102 20 361 83 369 90 10
10 23 -14 90 -176z m-1763 18 c2 -2 -12 -57 -30 -123 -43 -152 -139 -465 -142
-461 -5 4 -34 480 -34 548 l0 65 102 -13 c55 -7 102 -14 104 -16z m1028 -79
c-3 -57 -12 -188 -20 -292 -8 -103 -14 -198 -15 -210 -1 -12 -7 -3 -15 24 -30
91 -143 489 -149 523 l-7 34 84 10 c144 17 129 29 122 -89z m-326 -69 c12 -74
43 -240 69 -369 36 -182 50 -284 63 -455 9 -121 15 -222 14 -224 -4 -4 -138
102 -301 237 l-113 93 -132 -94 c-155 -110 -334 -227 -346 -227 -5 0 -8 10 -6
23 2 12 11 105 19 207 13 152 26 230 74 445 33 143 69 314 82 380 l22 121 266
-2 266 -2 23 -133z"/>
</g>
</svg>
