<?xml version="1.0" encoding="utf-8"?>
<!-- Svg Vector Icons : http://www.onlinewebfonts.com/icon -->
<!DOCTYPE svg PUBLIC "-//W3C//DTD SVG 1.1//EN" "http://www.w3.org/Graphics/SVG/1.1/DTD/svg11.dtd">
<svg version="1.1" xmlns="http://www.w3.org/2000/svg" xmlns:xlink="http://www.w3.org/1999/xlink" x="0px" y="0px" viewBox="0 0 1000 1000" enable-background="new 0 0 1000 1000" xml:space="preserve">
<metadata> Svg Vector Icons : http://www.onlinewebfonts.com/icon </metadata>
<g><path fill="#666666" d="M646.9,810.7l-54.9-0.3c0,0,14.4-76.2-65.2-86c-0.6,0-16.4-1-30.6,5.6l2,3.3c7.8-3.2,16.1-4.9,24.6-4.9c17.2,0,34.3,7.1,46.4,19.2c12.2,12.1,19.2,29.3,19.2,46.4c0,17.2-7,34.3-19.2,46.4c-3.3,3.4-7.1,6.4-11.1,8.9h111.7v-2.1C669.8,831,660.5,817.2,646.9,810.7z M382.6,322.3L141,570v236.6h-5.3c-22.3,0-40.5,18.1-40.5,40.5v2.1h378.9c-4-2.5-7.8-5.5-11.1-8.9c-8.9-8.8-15.1-20.2-17.7-32.4H272.9V584.1h220.5l-0.2,37c13.7-1.4,26.6-3.4,41.6-2.4c0,0,21-33.6,65.4-69.3L382.6,322.3z"/><path fill="#666666"  d="M382.5,276l250.4,256.8h122.2L382.5,150.7L10,532.8h122.2L382.5,276z"/><path fill="#666666" d="M518.1,738.8c-14.5,0-28.8,6-39.1,16.2c-10.2,10.2-16.2,24.6-16.2,39.1s6,28.8,16.2,39.1c10.2,10.2,24.6,16.2,39.1,16.2c14.5,0,28.8-6,39.1-16.2c10.2-10.2,16.2-24.6,16.2-39.1s-6-28.8-16.2-39.1C546.9,744.7,532.5,738.8,518.1,738.8z"/><path fill="#666666" d="M878.5,738.8c-14.5,0-28.8,6-39.1,16.2c-10.2,10.2-16.2,24.6-16.2,39.1s6,28.8,16.2,39.1s24.6,16.2,39.1,16.2c14.5,0,28.8-6,39.1-16.2c10.2-10.2,16.2-24.6,16.2-39.1s-6-28.8-16.2-39.1C907.4,744.7,893,738.8,878.5,738.8z"/><path fill="#666666"  d="M948.1,649h-30c-16.2-37.8-57.4-83.2-57.4-83.2c-8.9-10.5-15.1-10-15.1-10l-205.8,0.2c-42.1,21.7-92.4,93.5-92.4,93.5c-39.2-2.5-84.6,5.6-84.6,5.6c-47.5,8.6-54.7,32.8-54.7,32.8v82.1c1.4,19.7,21.7,27.9,21.7,27.9c5-88,88.3-90.7,88.3-90.6c95.9,4.2,89.4,90.7,89.4,90.7h183.3c5.4-88,87-88,87-88c89.9,7.1,88,88,88,88c21.7-4.9,24.3-25.2,24.3-25.2v-87.9C980.4,658.3,948.1,649,948.1,649z M722.5,654l-127.1-0.8c26.2-62.3,60.5-72,60.5-72l68.2,0L722.5,654z M758.7,653.3l-0.2-69.5c11.9-0.6,69-0.4,69-0.4c12.4,0.3,20.9,6.4,30.5,21.6c10.4,16.4,20.5,48.5,20.5,48.5L758.7,653.3z"/><path fill="#666666"  d="M518.1,738.8c-14.5,0-28.8,6-39.1,16.2c-10.2,10.2-16.2,24.6-16.2,39.1s6,28.8,16.2,39.1c10.2,10.2,24.6,16.2,39.1,16.2c14.5,0,28.8-6,39.1-16.2c10.2-10.2,16.2-24.6,16.2-39.1s-6-28.8-16.2-39.1C546.9,744.7,532.5,738.8,518.1,738.8z"/><path fill="#666666" d="M878.5,738.8c-14.5,0-28.8,6-39.1,16.2c-10.2,10.2-16.2,24.6-16.2,39.1s6,28.8,16.2,39.1s24.6,16.2,39.1,16.2c14.5,0,28.8-6,39.1-16.2c10.2-10.2,16.2-24.6,16.2-39.1s-6-28.8-16.2-39.1C907.4,744.7,893,738.8,878.5,738.8z"/></g>
</svg>