<?xml version="1.0" encoding="iso-8859-1"?>
<!-- Generator: Adobe Illustrator 18.0.0, SVG Export Plug-In . SVG Version: 6.00 Build 0)  -->
<!DOCTYPE svg PUBLIC "-//W3C//DTD SVG 1.1//EN" "http://www.w3.org/Graphics/SVG/1.1/DTD/svg11.dtd">
<svg version="1.1" id="Capa_1" xmlns="http://www.w3.org/2000/svg" xmlns:xlink="http://www.w3.org/1999/xlink" x="0px" y="0px"
	 viewBox="0 0 377.208 377.208" style="enable-background:new 0 0 377.208 377.208;" xml:space="preserve">
<g>
	<g>
		<g>
			<g>
				<g>
					<path fill="#666666" d="M271.726,220.19H40.652c-4.143,0-7.5-3.357-7.5-7.5V58.682c0-4.143,3.357-7.5,7.5-7.5h231.074
						c4.143,0,7.5,3.357,7.5,7.5V212.69C279.226,216.833,275.868,220.19,271.726,220.19z M48.152,205.19h216.074V66.182H48.152
						V205.19z"/>
				</g>
				<path fill="#666666" d="M295.738,27.926H16.64c-4.143,0-7.5,3.357-7.5,7.5v226.102c0,4.142,3.357,7.5,7.5,7.5h99.961
					c-3.691,7.945-10.518,18.784-21.664,23.561c-3.273,1.402-5.109,4.913-4.393,8.401c0.715,3.488,3.785,5.992,7.346,5.992h116.596
					c3.561,0,6.631-2.504,7.348-5.992c0.715-3.488-1.119-6.999-4.393-8.401c-11.064-4.742-17.914-15.602-21.633-23.561h99.93
					c4.143,0,7.5-3.358,7.5-7.5V35.426C303.238,31.284,299.88,27.926,295.738,27.926z M192.659,291.983h-72.941
					c6.889-8.18,10.996-17.262,13.117-22.955h46.705C181.661,274.721,185.771,283.802,192.659,291.983z M288.238,254.028H24.14
					V42.926h264.098V254.028z"/>
			</g>
			<g>
				<path fill="#666666" d="M304.896,349.282c-0.006,0-0.012,0-0.02,0H7.499c-2.531,0-4.892-1.277-6.277-3.397
					c-1.385-2.119-1.607-4.795-0.592-7.114l9.141-20.848c1.195-2.727,3.891-4.488,6.869-4.488h279.098
					c2.977,0,5.674,1.762,6.869,4.489l8.922,20.355c0.555,1.046,0.867,2.237,0.867,3.503
					C312.396,345.924,309.038,349.282,304.896,349.282z M18.978,334.282H293.4l-2.564-5.848H21.54L18.978,334.282z"/>
			</g>
		</g>
		<g>
			<path fill="#666666"  d="M369.708,349.282h-47.539c-4.143,0-7.5-3.357-7.5-7.5v-10.641c0-12.884,13.734-22.977,31.267-22.977
				c17.535,0,31.272,10.093,31.272,22.977v10.641C377.208,345.924,373.851,349.282,369.708,349.282z M329.669,334.282h32.539v-3.141
				c0-3.176-6.49-7.977-16.272-7.977c-9.779,0-16.267,4.801-16.267,7.977V334.282z"/>
		</g>
	</g>
</g>
<g>
</g>
<g>
</g>
<g>
</g>
<g>
</g>
<g>
</g>
<g>
</g>
<g>
</g>
<g>
</g>
<g>
</g>
<g>
</g>
<g>
</g>
<g>
</g>
<g>
</g>
<g>
</g>
<g>
</g>
</svg>
