<?xml version="1.0" encoding="iso-8859-1"?>
<!-- Generator: Adobe Illustrator 18.0.0, SVG Export Plug-In . SVG Version: 6.00 Build 0)  -->
<!DOCTYPE svg PUBLIC "-//W3C//DTD SVG 1.1//EN" "http://www.w3.org/Graphics/SVG/1.1/DTD/svg11.dtd">
<svg version="1.1" id="Capa_1" xmlns="http://www.w3.org/2000/svg" xmlns:xlink="http://www.w3.org/1999/xlink" x="0px" y="0px"
	 viewBox="0 0 492.373 492.373" style="enable-background:new 0 0 492.373 492.373;" xml:space="preserve">
<g>
	<path d="M177.221,196.774c0-2.012-0.334-3.936-0.62-5.873l65.857-27.409c5.645-2.352,9.961-7.086,11.773-12.941l32.727-105.824
		c3.358-10.872-2.729-22.419-13.609-25.786c-10.855-3.366-22.419,2.722-25.785,13.609l-29.868,96.587l-68.433,28.485
		c-5.036-1.904-10.49-3.029-16.237-3.029c-24.391,0-44.177,18.883-44.177,42.18v139.952c0,6.959,2.18,13.393,5.859,18.715H78.734
		c-8.85,0-16.049-7.2-16.049-16.05V213.847c0-11.387-9.229-20.615-20.616-20.615s-20.615,9.229-20.615,20.615v125.545
		c0,31.583,25.697,57.28,57.28,57.28h50.951v75.085c0,11.387,9.229,20.616,20.616,20.616s20.615-9.228,20.615-20.616v-95.701
		c0-2.251-0.614-4.318-1.28-6.346h26.455c2.23,0,4.269,1.273,5.249,3.276l0.21,0.429v-69.675h-24.328V196.774z"/>
	<path d="M137.408,119.048c30.505,0,55.243-24.73,55.243-55.243S167.913,8.554,137.408,8.554c-30.506,0-55.26,24.738-55.26,55.251
		S106.902,119.048,137.408,119.048z"/>
	<path d="M267.519,358.177v113.581c0,3.581-0.716,6.964-1.771,10.192c3.317,1.093,6.75,1.814,10.282,1.814
		c4.857,0,9.784-1.078,14.447-3.35c16.372-7.989,23.16-27.742,15.171-44.113L267.519,358.177z"/>
	<path d="M454.427,273.849H234.534c-9.108,0-16.492,7.385-16.492,16.493v181.416c0,9.108,7.384,16.493,16.492,16.493
		c9.108,0,16.492-7.385,16.492-16.493V336.726h16.493h153.923h16.493v135.031c0,9.108,7.384,16.493,16.492,16.493
		c9.108,0,16.493-7.385,16.493-16.493V290.341C470.919,281.233,463.535,273.849,454.427,273.849z"/>
	<path d="M323.865,264.5h96.208c5.507,0,10.481-2.773,13.505-7.143c0.885-1.278,1.655-2.656,2.158-4.188l32.985-100.13
		c2.851-8.657-1.852-17.974-10.501-20.825c-8.705-2.874-17.974,1.86-20.825,10.501l-29.256,88.8h-84.274
		c-9.108,0-16.492,7.385-16.492,16.492c0,3.55,1.363,6.658,3.271,9.35C313.631,261.57,318.306,264.5,323.865,264.5z"/>
	<path d="M353.282,78.565c12.757,4.3,18.272,8.439,18.272,14.979c0,6.894-6.724,10.693-16.541,10.693
		c-6.975,0-13.545-1.408-19.263-3.422c-2.448-0.869-5.154-0.652-7.44,0.572c-2.296,1.224-3.963,3.35-4.614,5.861l-0.162,0.636
		c-1.417,5.541,1.754,11.219,7.215,12.926c5.807,1.812,12.731,3.092,19.778,3.407v7.932c0,4.662,3.777,8.439,8.439,8.439
		c4.671,0,8.448-3.776,8.448-8.439v-9.14c19.811-3.439,30.674-16.541,30.674-31.873c0-15.51-8.271-24.973-28.781-32.211
		c-14.641-5.517-20.672-9.132-20.672-14.818c0-4.831,3.616-9.646,14.825-9.646c6.257,0,11.378,1.006,15.495,2.247
		c2.479,0.757,5.169,0.45,7.423-0.822c2.257-1.271,3.899-3.414,4.542-5.928l0.162-0.62c1.329-5.185-1.764-10.476-6.934-11.869
		c-4.332-1.167-9.525-2.022-15.872-2.302V8.439c0-4.662-3.777-8.439-8.439-8.439c-4.671,0-8.447,3.777-8.447,8.439v7.926
		c-18.434,3.614-29.112,15.509-29.112,30.665C322.278,63.74,334.848,72.355,353.282,78.565z"/>
</g>
<g>
</g>
<g>
</g>
<g>
</g>
<g>
</g>
<g>
</g>
<g>
</g>
<g>
</g>
<g>
</g>
<g>
</g>
<g>
</g>
<g>
</g>
<g>
</g>
<g>
</g>
<g>
</g>
<g>
</g>
</svg>
