<svg class="svg-icon" style="width: 1.2265625em; height: 1em;vertical-align: middle;fill: currentColor;overflow: hidden;" viewBox="0 0 1256 1024" version="1.1" xmlns="http://www.w3.org/2000/svg"><path  d="M501.55102 553.795918c0-16.718367 14.628571-31.346939 31.346939-31.346938h125.387755c16.718367 0 31.346939 14.628571 31.346939 31.346938s-14.628571 31.346939-31.346939 31.346939h-125.387755c-16.718367 0-31.346939-14.628571-31.346939-31.346939z m31.346939 156.734694h208.979592c16.718367 0 31.346939-14.628571 31.346939-31.346939s-14.628571-31.346939-31.346939-31.346938h-208.979592c-16.718367 0-31.346939 14.628571-31.346939 31.346938s14.628571 31.346939 31.346939 31.346939z m0 125.387755h208.979592c16.718367 0 31.346939-14.628571 31.346939-31.346938s-14.628571-31.346939-31.346939-31.346939h-208.979592c-16.718367 0-31.346939 14.628571-31.346939 31.346939s14.628571 31.346939 31.346939 31.346938zM250.77551 668.734694h-4.179592 4.179592z m-4.179592 0l-33.436734-156.734694C185.991837 524.538776 167.183673 551.706122 167.183673 585.142857c0 43.885714 35.526531 81.502041 79.412245 83.591837z m171.363266-83.591837c0-45.97551-37.616327-83.591837-83.591837-83.591837-14.628571 0-27.167347 4.179592-37.616327 10.44898l33.436735 156.734694h4.179592c45.97551 0 83.591837-37.616327 83.591837-83.591837zM125.387755 752.326531v83.591836h158.82449l-35.526531-167.183673H208.979592c-45.97551 0-83.591837 37.616327-83.591837 83.591837z m334.367347 0c0-45.97551-37.616327-83.591837-83.591837-83.591837h-45.97551l35.526531 167.183673H459.755102v-83.591836zM83.591837 940.408163V397.061224h104.489796l-18.808164-83.591836H41.795918c-22.987755 0-41.795918 18.808163-41.795918 41.795918v626.938776c0 22.987755 18.808163 41.795918 41.795918 41.795918h282.122449l-18.808163-83.591837H83.591837zM1086.693878 104.489796H334.367347c-22.987755 0-41.795918 18.808163-41.795918 41.795918v167.183674h-39.706123l18.808163 83.591836h606.040817v543.346939H390.791837l18.808163 83.591837H919.510204c22.987755 0 41.795918-18.808163 41.795918-41.795918V773.22449h125.387756c22.987755 0 41.795918-18.808163 41.795918-41.795919V146.285714c0-22.987755-18.808163-41.795918-41.795918-41.795918z" fill="#666666"  /></svg>