<?xml version="1.0" encoding="utf-8"?>
<!-- Svg Vector Icons : http://www.onlinewebfonts.com/icon -->
<!DOCTYPE svg PUBLIC "-//W3C//DTD SVG 1.1//EN" "http://www.w3.org/Graphics/SVG/1.1/DTD/svg11.dtd">
<svg version="1.1" xmlns="http://www.w3.org/2000/svg" xmlns:xlink="http://www.w3.org/1999/xlink" x="0px" y="0px" viewBox="0 0 1000 1000" enable-background="new 0 0 1000 1000" xml:space="preserve">
<metadata> Svg Vector Icons : http://www.onlinewebfonts.com/icon </metadata>
<g><g transform="translate(0.000000,511.000000) scale(0.100000,-0.100000)"><path d="M5209.1,4402.5V3795h-298.8h-298.8v-199.2v-199.2h-806.7h-806.7v-547.8v-547.8L2789,2127.8l-209.1-175.3V-1109v-3063.5h-308.7h-308.7v-199.2v-199.2h-478h-478v-109.6V-4790H5000h3993.7v109.6v109.6h-507.9h-507.9v199.2v199.2h-298.8h-298.8v1888.3v1886.3l-199.2,199.2L6981.9,0.4v1697.1v1699.1h-199.2h-199.2v199.2V3795h-288.8h-288.8v298.8v298.8h-99.6h-99.6v-298.8V3795h-209.1h-209.1v607.5V5010h-89.6h-89.6V4402.5z M4173.4,2599.8v-398.4H3785h-388.4v398.4v398.4H3785h388.4V2599.8z M5388.4,2599.8v-398.4H4990h-398.4v384.4c0,213.1,6,392.4,13.9,398.4c6,8,185.2,14,398.4,14h384.4V2599.8z M6579.5,2595.8l4-394.4h-398.4h-398.4v398.4v398.4l394.4-4l392.4-6L6579.5,2595.8z M4173.4,1404.7v-398.4H3785h-388.4v398.4v398.4H3785h388.4V1404.7z M5388.4,1404.7v-398.4l-392.4,4l-394.4,6l-6,394.4l-4,392.4H4990h398.4V1404.7z M6579.5,1410.7l-6-394.4l-392.4-6l-394.4-4v398.4v398.4h398.4h398.4L6579.5,1410.7z M4173.4,229.5v-398.4H3785h-388.4v398.4v398.4H3785h388.4V229.5z M5388.4,229.5v-398.4H4990h-398.4v398.4v398.4H4990h398.4V229.5z M6583.5,229.5v-398.4h-398.4h-398.4v398.4v398.4h398.4h398.4V229.5z M4173.4-945.7v-398.4H3785h-388.4v398.4v398.4H3785h388.4V-945.7z M5388.4-945.7v-398.4H4990h-398.4v384.4c0,213.1,6,392.4,13.9,398.4c6,8,185.2,13.9,398.4,13.9h384.4V-945.7z M6579.5-949.7l4-394.4h-398.4h-398.4v398.4v398.4l394.4-4l392.4-6L6579.5-949.7z M4173.4-2180.7V-2579H3785h-388.4v398.4v398.4H3785h388.4V-2180.7z M5388.4-2180.7V-2579l-392.4,4l-394.4,6l-6,394.4l-4,392.4H4990h398.4V-2180.7z M6579.5-2174.7l-6-394.4l-392.4-6l-394.4-4v398.4v398.4h398.4h398.4L6579.5-2174.7z M4173.4-3375.8v-398.4H3785h-388.4v398.4v398.4H3785h388.4V-3375.8z M5388.4-3375.8v-398.4l-392.4,4l-394.4,6l-6,394.4l-4,392.4H4990h398.4V-3375.8z M6579.5-3369.8l-6-394.4l-392.4-6l-394.4-4v398.4v398.4h398.4h398.4L6579.5-3369.8z"/></g></g>
</svg>