<?xml version="1.0" encoding="iso-8859-1"?>
<!-- Generator: Adobe Illustrator 18.1.1, SVG Export Plug-In . SVG Version: 6.00 Build 0)  -->
<svg version="1.1" id="Capa_1" xmlns="http://www.w3.org/2000/svg" xmlns:xlink="http://www.w3.org/1999/xlink" x="0px" y="0px"
	 viewBox="0 0 65.709 65.709" style="enable-background:new 0 0 65.709 65.709;" xml:space="preserve">
<g>
	<g>
		<path style="fill:#010002;" d="M56.877,28.438v2.859h-6.359c0.751-0.557,1.436-1.188,2.056-1.893
			c2.946-3.355,3.618-7.548,3.716-10.185h5.004c1.291,0,2.337-1.047,2.337-2.337V3.631c0-1.29-1.046-2.337-2.337-2.337h-13.25
			c-1.291,0-2.337,1.047-2.337,2.337v13.25c0,1.291,1.046,2.337,2.337,2.337h5.13c-0.095,2.151-0.65,5.519-2.942,8.129
			c-1.911,2.176-4.744,3.448-8.415,3.821v-4.939c0-1.29-1.046-2.337-2.337-2.337H26.23c-1.291,0-2.337,1.047-2.337,2.337v5.067
			H8.833v-2.859H0v8.833h8.833v-2.857h7.362c-4.48,3.466-5.971,8.979-6.467,12.078H4.416c-1.292,0-2.337,1.047-2.337,2.337v13.25
			c0,1.291,1.046,2.337,2.337,2.337h13.25c1.291,0,2.337-1.047,2.337-2.337v-13.25c0-1.291-1.046-2.337-2.337-2.337h-4.818
			c0.634-3.764,2.901-10.79,11.044-11.923v4.912c0,1.29,1.046,2.337,2.337,2.337h13.25c1.291,0,2.337-1.047,2.337-2.337v-5.067
			h15.06v2.857h8.833v-8.833h-8.832V28.438z M50.38,5.969h8.576v8.576H50.38C50.38,14.545,50.38,5.969,50.38,5.969z M15.329,59.741
			H6.753v-8.576h8.576V59.741z M37.142,37.143h-8.575v-8.576h8.575V37.143z"/>
	</g>
</g>
<g>
</g>
<g>
</g>
<g>
</g>
<g>
</g>
<g>
</g>
<g>
</g>
<g>
</g>
<g>
</g>
<g>
</g>
<g>
</g>
<g>
</g>
<g>
</g>
<g>
</g>
<g>
</g>
<g>
</g>
</svg>
