<svg class="svg-icon" style="width: 1em; height: 1em;vertical-align: middle;fill: currentColor;overflow: hidden;" viewBox="0 0 1024 1024" version="1.1" xmlns="http://www.w3.org/2000/svg"><path d="M512 96c-52.64 0-96 43.36-96 96 0 11.296 2.336 21.888 6.016 32H231.008l-6.016 24.992-128 544-0.992 3.008V864h832v-68l-0.992-3.008-128-544L792.96 224H601.984c3.68-10.112 6.016-20.704 6.016-32 0-52.64-43.36-96-96-96z m0 64c18.048 0 32 13.952 32 32 0 18.048-13.952 32-32 32-18.048 0-32-13.952-32-32 0-18.048 13.952-32 32-32zM280.992 288H743.04l120 512H160.96l120-512zM480 384v32h-16a79.904 79.904 0 0 0-80 80c0 44.256 35.744 80 80 80h96c6.944 0 16 9.056 16 16 0 6.944-9.056 16-16 16H384v64h96v32h64v-32h16c44.256 0 80-35.744 80-80S604.256 512 560 512h-96c-6.944 0-16-9.056-16-16 0-6.944 9.056-16 16-16H608v-64h-64v-32h-64z"  /></svg>