<svg class="svg-icon" style="width: 1em; height: 1em;vertical-align: middle;fill: currentColor;overflow: hidden;" viewBox="0 0 1024 1024" version="1.1" xmlns="http://www.w3.org/2000/svg"><path d="M512 640c-12.8 0-21.333333-8.533333-21.333333-21.333333v-138.666667c0-12.8 8.533333-21.333333 21.333333-21.333333s21.333333 8.533333 21.333333 21.333333V618.666667c0 12.8-8.533333 21.333333-21.333333 21.333333zM842.666667 853.333333h-128c-23.466667 0-42.666667-19.2-42.666667-42.666666v-85.333334c0-23.466667 19.2-42.666667 42.666667-42.666666h128c23.466667 0 42.666667 19.2 42.666666 42.666666v85.333334c0 23.466667-19.2 42.666667-42.666666 42.666666z m-128-128v85.333334h128v-85.333334h-128zM576 853.333333h-128c-23.466667 0-42.666667-19.2-42.666667-42.666666v-85.333334c0-23.466667 19.2-42.666667 42.666667-42.666666h128c23.466667 0 42.666667 19.2 42.666667 42.666666v85.333334c0 23.466667-19.2 42.666667-42.666667 42.666666z m-128-128v85.333334h128v-85.333334h-128zM309.333333 853.333333h-128c-23.466667 0-42.666667-19.2-42.666666-42.666666v-85.333334c0-23.466667 19.2-42.666667 42.666666-42.666666h128c23.466667 0 42.666667 19.2 42.666667 42.666666v85.333334c0 23.466667-19.2 42.666667-42.666667 42.666666z m-128-128v85.333334h128v-85.333334h-128z"  /><path d="M768 640c-12.8 0-21.333333-8.533333-21.333333-21.333333v-66.133334L277.333333 554.666667v64c0 12.8-8.533333 21.333333-21.333333 21.333333s-21.333333-8.533333-21.333333-21.333333v-66.133334c0-23.466667 19.2-40.533333 42.666666-40.533333h469.333334c23.466667 0 42.666667 19.2 42.666666 40.533333V618.666667c0 12.8-8.533333 21.333333-21.333333 21.333333zM576 405.333333h-128c-36.266667 0-64-27.733333-64-64V170.666667c0-36.266667 27.733333-64 64-64h128c36.266667 0 64 27.733333 64 64v170.666666c0 36.266667-27.733333 64-64 64zM448 149.333333c-12.8 0-21.333333 8.533333-21.333333 21.333334v170.666666c0 12.8 8.533333 21.333333 21.333333 21.333334h128c12.8 0 21.333333-8.533333 21.333333-21.333334V170.666667c0-12.8-8.533333-21.333333-21.333333-21.333334h-128z"  /><path d="M554.666667 234.666667h-85.333334c-12.8 0-21.333333-8.533333-21.333333-21.333334s8.533333-21.333333 21.333333-21.333333h85.333334c12.8 0 21.333333 8.533333 21.333333 21.333333s-8.533333 21.333333-21.333333 21.333334zM554.666667 320h-85.333334c-12.8 0-21.333333-8.533333-21.333333-21.333333s8.533333-21.333333 21.333333-21.333334h85.333334c12.8 0 21.333333 8.533333 21.333333 21.333334s-8.533333 21.333333-21.333333 21.333333z"  /></svg>