<svg class="svg-icon" style="width: 1em; height: 1em;vertical-align: middle;fill: currentColor;overflow: hidden;" viewBox="0 0 1024 1024" version="1.1" xmlns="http://www.w3.org/2000/svg"><path d="M261.944386 688.817078l482.947314 0L744.891699 265.075191 261.944386 265.075191 261.944386 688.817078zM510.907621 474.154044l149.274792 0c0 0 25.299199 16.925485 0 34.590819L510.907621 508.744863C510.907621 508.744863 491.310284 490.715231 510.907621 474.154044zM667.883815 578.088184l-113.071242-0.161682c-32.999578-23.184025 8.182356-34.590819 8.182356-34.590819l92.865038 0.215918C690.652378 549.179784 667.883815 578.088184 667.883815 578.088184zM660.182412 439.563224 510.907621 439.563224c0 0-20.110013-14.715143 0-35.437094l149.274792 0.847298C660.182412 404.973428 685.993265 422.811702 660.182412 439.563224zM510.907621 335.790766l149.812027 0.284479c0 0 24.505114 16.934694-0.537236 34.305317L510.907621 370.380562C510.907621 370.381585 487.217059 352.902492 510.907621 335.790766zM405.536758 465.506083c0 0-51.29527-1.772366-74.831312-35.797297 0 0-12.535501-20.466124 4.349051-46.304605 0 0 14.582113-21.493523 43.490513-30.317493l0.649799-25.943882 26.342971 0 0 25.943882 17.561981 0c0 0 21.768793 0.620124 26.341948 8.646937l0 25.943882-8.78099 0 0 8.647961-17.560958 0 0-8.647961-35.123962 0c0 0-30.834262 18.922978-3.545756 29.15604 0 0 13.302981 4.881171 22.128997 5.585205 0 0 16.949021 2.430352 31.722492 11.83249 0 0 12.638855 6.909363 19.942191 22.60995l0 51.885717c0 0-28.763091 29.424146-52.68492 25.942859l0 34.590819-26.566052 0 0.223081-34.590819-52.685943 0c0 0-16.73208-15.878642 0-34.590819l79.028914 0C405.536758 500.096902 417.946392 489.279532 405.536758 465.506083z"  /><path d="M512.001535 58.016345c-246.99951 0-447.231881 200.231347-447.231881 447.230857s200.23237 447.230857 447.231881 447.230857c246.998487 0 447.228811-200.23237 447.228811-447.230857S759.000022 58.016345 512.001535 58.016345zM788.796652 775.293615l-52.683896-60.532655-8.779967 0-35.123962 60.532655-35.123962-60.532655-8.782014 0-35.121915 60.532655-26.341948-60.532655-8.782014 0-35.123962 60.532655-26.341948-60.532655-8.779967 0-35.122939 60.532655-35.124985-60.532655-8.779967 0-35.123962 60.532655-26.342971-60.532655-8.78099 0-26.342971 60.532655-43.903929-60.532655-8.78099 0-52.68492 60.532655L226.82247 265.075191c0 0-2.526543-43.23878 35.123962-43.23878l491.729328 0c0 0 35.121915 5.647627 35.121915 43.23878L788.797675 775.293615z"  /></svg>