<?xml version="1.0" standalone="no"?>
<!DOCTYPE svg PUBLIC "-//W3C//DTD SVG 20010904//EN"
 "http://www.w3.org/TR/2001/REC-SVG-20010904/DTD/svg10.dtd">
<svg version="1.0" xmlns="http://www.w3.org/2000/svg"
 width="1280.000000pt" height="1234.000000pt" viewBox="0 0 1280.000000 1234.000000"
 preserveAspectRatio="xMidYMid meet">
<metadata>
Created by potrace 1.15, written by Peter Selinger 2001-2017
</metadata>
<g transform="translate(0.000000,1234.000000) scale(0.100000,-0.100000)"
fill="#000000" stroke="none">
<path d="M3681 12088 c-5 -18 -73 -235 -151 -483 -158 -505 -261 -832 -510
-1625 -94 -300 -216 -687 -270 -860 -54 -173 -175 -558 -269 -855 -93 -297
-264 -844 -381 -1215 -116 -371 -238 -758 -270 -860 -32 -102 -154 -489 -270
-860 -116 -371 -238 -758 -270 -860 -32 -102 -154 -489 -270 -860 -116 -371
-238 -758 -270 -860 -32 -102 -153 -486 -269 -855 -115 -369 -266 -850 -335
-1070 -69 -220 -126 -404 -126 -410 0 -9 520 -178 574 -187 21 -3 -1 -71 552
1692 113 360 232 738 264 840 32 102 154 489 270 860 117 371 288 918 382
1215 93 297 214 684 269 860 138 441 160 506 167 501 4 -2 84 -28 177 -59 461
-150 1126 -367 1345 -439 377 -123 706 -230 915 -298 105 -34 204 -71 222 -81
17 -11 60 -29 95 -40 62 -20 303 -99 791 -258 1385 -454 2059 -671 2095 -675
29 -4 2663 -857 2787 -903 6 -2 38 81 72 184 34 104 211 645 393 1203 182 558
367 1125 412 1260 44 135 115 353 158 485 183 562 243 743 318 975 354 1081
521 1594 519 1596 -1 1 -625 206 -1386 454 -762 249 -1396 460 -1410 470 -14
10 -55 27 -91 38 -67 21 -373 121 -800 260 -1384 453 -2062 672 -2084 672 -15
0 -248 72 -519 161 -270 88 -601 196 -734 240 -134 43 -353 115 -488 159 -135
44 -354 116 -487 159 -134 44 -301 98 -373 121 -71 23 -134 46 -140 50 -5 5
-136 47 -290 96 -154 48 -285 89 -291 91 -7 2 -17 -11 -23 -29z"/>
</g>
</svg>
